<mxfile host="65bd71144e">
    <diagram id="FfG3Gqic9UCsEbPg3QcV" name="Page-1">
        <mxGraphModel dx="779" dy="537" grid="1" gridSize="10" guides="1" tooltips="1" connect="1" arrows="1" fold="1" page="1" pageScale="1" pageWidth="850" pageHeight="1100" math="0" shadow="0">
            <root>
                <mxCell id="0"/>
                <mxCell id="1" parent="0"/>
                <mxCell id="14" value="Banc de test" style="rounded=1;whiteSpace=wrap;html=1;verticalAlign=top;" vertex="1" parent="1">
                    <mxGeometry x="40" y="70" width="580" height="240" as="geometry"/>
                </mxCell>
                <mxCell id="2" value="Source de lumiÃ¨re" style="rounded=1;whiteSpace=wrap;html=1;" vertex="1" parent="1">
                    <mxGeometry x="70" y="120" width="90" height="100" as="geometry"/>
                </mxCell>
                <mxCell id="3" value="Appareil photo" style="rounded=1;whiteSpace=wrap;html=1;fillColor=#B3B3B3;" vertex="1" parent="1">
                    <mxGeometry x="210" y="120" width="90" height="100" as="geometry"/>
                </mxCell>
                <mxCell id="13" value="signal" style="edgeStyle=none;html=1;exitX=1;exitY=0.5;exitDx=0;exitDy=0;entryX=0;entryY=0.5;entryDx=0;entryDy=0;" edge="1" parent="1" source="4" target="7">
                    <mxGeometry x="-0.2" y="10" relative="1" as="geometry">
                        <mxPoint as="offset"/>
                    </mxGeometry>
                </mxCell>
                <mxCell id="4" value="Capteur" style="rounded=1;whiteSpace=wrap;html=1;" vertex="1" parent="1">
                    <mxGeometry x="350" y="120" width="90" height="100" as="geometry"/>
                </mxCell>
                <mxCell id="5" value="" style="shape=singleArrow;whiteSpace=wrap;html=1;arrowWidth=0.39743589743589686;arrowSize=0.6051282051282063;" vertex="1" parent="1">
                    <mxGeometry x="170" y="155" width="30" height="30" as="geometry"/>
                </mxCell>
                <mxCell id="6" value="" style="shape=singleArrow;whiteSpace=wrap;html=1;arrowWidth=0.39743589743589686;arrowSize=0.6051282051282063;" vertex="1" parent="1">
                    <mxGeometry x="310" y="155" width="30" height="30" as="geometry"/>
                </mxCell>
                <mxCell id="11" style="edgeStyle=none;html=1;exitX=0.5;exitY=1;exitDx=0;exitDy=0;entryX=0.5;entryY=1;entryDx=0;entryDy=0;" edge="1" parent="1" source="7" target="2">
                    <mxGeometry relative="1" as="geometry">
                        <mxPoint x="223.33333333333334" y="300" as="targetPoint"/>
                        <Array as="points">
                            <mxPoint x="535" y="270"/>
                            <mxPoint x="115" y="270"/>
                        </Array>
                    </mxGeometry>
                </mxCell>
                <mxCell id="7" value="Analyse" style="rounded=1;whiteSpace=wrap;html=1;" vertex="1" parent="1">
                    <mxGeometry x="490" y="120" width="90" height="100" as="geometry"/>
                </mxCell>
                <mxCell id="12" value="control" style="text;html=1;align=center;verticalAlign=middle;whiteSpace=wrap;rounded=0;" vertex="1" parent="1">
                    <mxGeometry x="300" y="240" width="60" height="30" as="geometry"/>
                </mxCell>
            </root>
        </mxGraphModel>
    </diagram>
</mxfile>